<?xml version="1.0" ?><!DOCTYPE svg  PUBLIC '-//W3C//DTD SVG 1.1//EN'  'http://www.w3.org/Graphics/SVG/1.1/DTD/svg11.dtd'><svg enable-background="new 0 0 512 512" height="512px" version="1.1" viewBox="0 0 512 512" width="512px" xml:space="preserve" xmlns="http://www.w3.org/2000/svg" xmlns:xlink="http://www.w3.org/1999/xlink"><g id="kennel"/><g id="Kennel"><g><path d="M232.618,256.174h42.281c2.752,9.019,11.082,15.464,20.996,15.464c12.113,0,21.967-9.855,21.967-21.968    c0-2.161-0.322-4.26-0.908-6.256c-0.877-2.982-2.361-5.73-4.377-8.068c3.363-3.902,5.285-8.934,5.285-14.322    c0-12.113-9.854-21.968-21.967-21.968c-10.033,0-18.518,6.762-21.135,15.968h-42.005c-2.617-9.206-11.102-15.968-21.134-15.968    c-12.113,0-21.968,9.854-21.968,21.968c0,5.389,1.923,10.42,5.287,14.322c-2.016,2.338-3.5,5.086-4.377,8.068    c-0.587,1.996-0.91,4.095-0.91,6.256c0,12.112,9.855,21.968,21.968,21.968C221.535,271.638,229.865,265.192,232.618,256.174z     M221.578,249.987c-0.168,5.411-4.542,9.65-9.957,9.65c-5.496,0-9.968-4.472-9.968-9.968c0-2.337,0.805-4.521,2.209-6.256    c0.893-1.104,2.022-2.029,3.357-2.688c2.047-1.011,3.344-3.097,3.344-5.381c0-2.283-1.297-4.368-3.344-5.379    c-3.433-1.695-5.566-5.122-5.566-8.943c0-5.496,4.472-9.968,9.968-9.968c5.495,0,9.967,4.472,9.967,9.968c0,3.313,2.687,6,6,6    h52.34c3.313,0,6-2.687,6-6c0-5.496,4.471-9.968,9.967-9.968s9.967,4.472,9.967,9.968c0,3.821-2.133,7.248-5.564,8.943    c-2.049,1.011-3.344,3.096-3.344,5.379c0,2.284,1.295,4.37,3.344,5.381c1.334,0.658,2.465,1.584,3.357,2.688    c1.402,1.735,2.207,3.919,2.207,6.256c0,5.496-4.471,9.968-9.967,9.968c-5.414,0-9.789-4.239-9.957-9.651    c-0.102-3.239-2.756-5.813-5.998-5.813h-52.365C224.333,244.174,221.678,246.748,221.578,249.987z"/><path d="M458.432,454.611l-13.668-76.481h-49.096V260.565l22.807,21.77l35.471-33.858L253.754,57.389L53.569,248.492    l35.473,33.858l22.806-21.769v175.593h216.715l-3.295,18.437H458.432z M434.719,390.13l9.379,52.481H339.602l1.15-6.437l1.072-6    l1.072-6l3.77-21.1l1.072-6l1.072-6l0.168-0.945h34.689h6h6H434.719z M111.847,243.993l-22.806,21.77l-18.093-17.271    L253.754,73.979l182.812,174.498l-18.092,17.27l-22.807-21.77l-0.59-0.563L253.766,108.529L112.454,243.414L111.847,243.993z     M202.814,424.175h-78.967v-21.1h78.967V424.175z M202.814,391.075h-78.967V249.128l5.986-5.714l123.933-118.296l123.933,118.296    l5.969,5.697V378.13h-44.734l-2.313,12.945h-31.92v-55.494c0-28.091-22.854-50.943-50.943-50.943    c-28.09,0-50.944,22.853-50.944,50.943V391.075z M292.701,424.089h-77.887v-88.508c0-21.474,17.47-38.943,38.944-38.943    c21.473,0,38.943,17.47,38.943,38.943V424.089z M304.701,424.175v-21.1h29.775l-3.77,21.1H304.701z"/></g></g></svg>